<svg width="17" height="13" viewBox="0 0 17 13" fill="none" xmlns="http://www.w3.org/2000/svg">
<g clip-path="url(#clip0_1710_82)">
<path d="M0.375 0.333328H16.375V12.3333H0.375V0.333328Z" fill="#003399"/>
<path d="M8.37504 2.24268L8.19727 2.83527L8.49356 2.89453L8.37504 2.24268Z" fill="#FFCC00"/>
<path d="M8.37508 2.24268L8.55286 2.83527L8.25656 2.89453L8.37508 2.24268Z" fill="#FFCC00"/>
<path d="M8.93688 2.64794L8.31967 2.67258L8.3595 2.96631L8.93688 2.64794Z" fill="#FFCC00"/>
<path d="M8.93592 2.64935L8.43368 3.00372L8.2819 2.74789L8.93592 2.64935Z" fill="#FFCC00"/>
<path d="M8.72358 3.31455L8.51854 2.73074L8.24433 2.85732L8.72358 3.31455Z" fill="#FFCC00"/>
<path d="M8.72344 3.3145L8.23119 2.94007L8.43567 2.71767L8.72344 3.3145Z" fill="#FFCC00"/>
<path d="M7.81312 2.64794L8.43033 2.67258L8.3905 2.96631L7.81312 2.64794Z" fill="#FFCC00"/>
<path d="M7.81408 2.64935L8.31632 3.00372L8.4681 2.74789L7.81408 2.64935Z" fill="#FFCC00"/>
<path d="M8.02642 3.31455L8.23146 2.73074L8.50567 2.85732L8.02642 3.31455Z" fill="#FFCC00"/>
<path d="M8.02656 3.3145L8.51881 2.94007L8.31433 2.71767L8.02656 3.3145Z" fill="#FFCC00"/>
<path d="M8.37504 9.35379L8.19727 9.94638L8.49356 10.0056L8.37504 9.35379Z" fill="#FFCC00"/>
<path d="M8.37508 9.35379L8.55286 9.94638L8.25656 10.0056L8.37508 9.35379Z" fill="#FFCC00"/>
<path d="M8.93688 9.75906L8.31967 9.7837L8.3595 10.0774L8.93688 9.75906Z" fill="#FFCC00"/>
<path d="M8.93592 9.76046L8.43368 10.1148L8.2819 9.85901L8.93592 9.76046Z" fill="#FFCC00"/>
<path d="M8.72358 10.4257L8.51854 9.84185L8.24433 9.96843L8.72358 10.4257Z" fill="#FFCC00"/>
<path d="M8.72344 10.4256L8.23119 10.0512L8.43567 9.82879L8.72344 10.4256Z" fill="#FFCC00"/>
<path d="M7.81312 9.75906L8.43033 9.7837L8.3905 10.0774L7.81312 9.75906Z" fill="#FFCC00"/>
<path d="M7.81408 9.76046L8.31632 10.1148L8.4681 9.85901L7.81408 9.76046Z" fill="#FFCC00"/>
<path d="M8.02642 10.4257L8.23146 9.84185L8.50567 9.96843L8.02642 10.4257Z" fill="#FFCC00"/>
<path d="M8.02656 10.4256L8.51881 10.0512L8.31433 9.82879L8.02656 10.4256Z" fill="#FFCC00"/>
<path d="M4.8195 5.79822L4.64172 6.39081L4.93802 6.45007L4.8195 5.79822Z" fill="#FFCC00"/>
<path d="M4.81954 5.79822L4.99731 6.39081L4.70102 6.45007L4.81954 5.79822Z" fill="#FFCC00"/>
<path d="M5.38134 6.20348L4.76413 6.22813L4.80396 6.52185L5.38134 6.20348Z" fill="#FFCC00"/>
<path d="M5.38038 6.20489L4.87814 6.55926L4.72636 6.30344L5.38038 6.20489Z" fill="#FFCC00"/>
<path d="M5.16804 6.87009L4.963 6.28628L4.68879 6.41286L5.16804 6.87009Z" fill="#FFCC00"/>
<path d="M5.1679 6.87004L4.67564 6.49562L4.88012 6.27321L5.1679 6.87004Z" fill="#FFCC00"/>
<path d="M4.25758 6.20348L4.87479 6.22813L4.83495 6.52185L4.25758 6.20348Z" fill="#FFCC00"/>
<path d="M4.25854 6.20489L4.76078 6.55926L4.91256 6.30344L4.25854 6.20489Z" fill="#FFCC00"/>
<path d="M4.47088 6.87009L4.67592 6.28628L4.95013 6.41286L4.47088 6.87009Z" fill="#FFCC00"/>
<path d="M4.47102 6.87004L4.96327 6.49562L4.75879 6.27321L4.47102 6.87004Z" fill="#FFCC00"/>
<path d="M6.2923 3.81766L6.78455 3.4433L6.58005 3.22086L6.2923 3.81766Z" fill="#FFCC00"/>
<path d="M6.2923 3.81773L6.49732 3.23394L6.77154 3.36056L6.2923 3.81773Z" fill="#FFCC00"/>
<path d="M6.07672 3.15589L6.58677 3.50767L6.73385 3.2427L6.07672 3.15589Z" fill="#FFCC00"/>
<path d="M6.07684 3.15618L6.69565 3.16816L6.66145 3.46951L6.07684 3.15618Z" fill="#FFCC00"/>
<path d="M6.64486 2.7485L6.46397 3.3345L6.74925 3.39773L6.64486 2.7485Z" fill="#FFCC00"/>
<path d="M6.64688 2.74762L6.80943 3.33886L6.52231 3.39335L6.64688 2.74762Z" fill="#FFCC00"/>
<path d="M6.9888 3.81867L6.49704 3.44173L6.70326 3.22085L6.9888 3.81867Z" fill="#FFCC00"/>
<path d="M6.98849 3.81841L6.78586 3.23408L6.5102 3.35884L6.98849 3.81841Z" fill="#FFCC00"/>
<path d="M7.20634 3.15675L6.69297 3.50786L6.54789 3.24056L7.20634 3.15675Z" fill="#FFCC00"/>
<path d="M7.20565 3.15745L6.58615 3.1662L6.61794 3.46949L7.20565 3.15745Z" fill="#FFCC00"/>
<path d="M5.6712 5.13592L5.46619 4.55213L5.19196 4.67875L5.6712 5.13592Z" fill="#FFCC00"/>
<path d="M5.6712 5.13585L5.17895 4.76149L5.38345 4.53905L5.6712 5.13585Z" fill="#FFCC00"/>
<path d="M4.97482 5.13688L5.46658 4.75993L5.26036 4.53905L4.97482 5.13688Z" fill="#FFCC00"/>
<path d="M4.97513 5.13662L5.17776 4.55229L5.45342 4.67705L4.97513 5.13662Z" fill="#FFCC00"/>
<path d="M4.75728 4.47495L5.27066 4.82607L5.41573 4.55876L4.75728 4.47495Z" fill="#FFCC00"/>
<path d="M4.75798 4.47565L5.37747 4.48441L5.34568 4.7877L4.75798 4.47565Z" fill="#FFCC00"/>
<path d="M5.88678 4.47409L5.37674 4.82586L5.22965 4.56089L5.88678 4.47409Z" fill="#FFCC00"/>
<path d="M5.88666 4.47437L5.26785 4.48635L5.30205 4.7877L5.88666 4.47437Z" fill="#FFCC00"/>
<path d="M5.31864 4.0667L5.49953 4.65269L5.21425 4.71592L5.31864 4.0667Z" fill="#FFCC00"/>
<path d="M5.31662 4.06581L5.15408 4.65705L5.44119 4.71154L5.31662 4.06581Z" fill="#FFCC00"/>
<path d="M5.88396 8.03251L5.26766 8.05941L5.31071 8.35177L5.88396 8.03251Z" fill="#FFCC00"/>
<path d="M5.88252 8.03421L5.38473 8.38904L5.23026 8.13485L5.88252 8.03421Z" fill="#FFCC00"/>
<path d="M5.68027 8.69425L5.45398 8.1149L5.19257 8.25724L5.68027 8.69425Z" fill="#FFCC00"/>
<path d="M5.6774 8.6913L5.18079 8.33867L5.36991 8.10314L5.6774 8.6913Z" fill="#FFCC00"/>
<path d="M4.98222 8.71095L5.4688 8.3089L5.2443 8.10314L4.98222 8.71095Z" fill="#FFCC00"/>
<path d="M4.9858 8.70736L5.16314 8.11789L5.45403 8.22449L4.9858 8.70736Z" fill="#FFCC00"/>
<path d="M5.29748 7.64861L5.49534 8.18972L5.26993 8.28L5.29748 7.64861Z" fill="#FFCC00"/>
<path d="M5.28442 7.64179L5.20469 8.22384L5.44193 8.24589L5.28442 7.64179Z" fill="#FFCC00"/>
<path d="M4.74473 8.05852L5.37495 8.01996L5.381 8.35176L4.74473 8.05852Z" fill="#FFCC00"/>
<path d="M4.73708 8.05156L5.3028 8.39298L5.41634 8.09147L4.73708 8.05156Z" fill="#FFCC00"/>
<path d="M7.17009 9.22528L6.55379 9.25217L6.59685 9.54454L7.17009 9.22528Z" fill="#FFCC00"/>
<path d="M7.16865 9.22698L6.67086 9.58181L6.5164 9.32762L7.16865 9.22698Z" fill="#FFCC00"/>
<path d="M6.9664 9.88701L6.74012 9.30767L6.4787 9.45L6.9664 9.88701Z" fill="#FFCC00"/>
<path d="M6.96353 9.88404L6.46692 9.53142L6.65605 9.29589L6.96353 9.88404Z" fill="#FFCC00"/>
<path d="M6.26835 9.90371L6.75493 9.50166L6.53043 9.2959L6.26835 9.90371Z" fill="#FFCC00"/>
<path d="M6.27193 9.90012L6.44927 9.31065L6.74017 9.41726L6.27193 9.90012Z" fill="#FFCC00"/>
<path d="M6.58362 8.84138L6.78148 9.38249L6.55606 9.47276L6.58362 8.84138Z" fill="#FFCC00"/>
<path d="M6.57056 8.83456L6.49083 9.41661L6.72806 9.43865L6.57056 8.83456Z" fill="#FFCC00"/>
<path d="M6.03086 9.25129L6.66108 9.21273L6.66713 9.54452L6.03086 9.25129Z" fill="#FFCC00"/>
<path d="M6.02321 9.24432L6.58894 9.58574L6.70248 9.28423L6.02321 9.24432Z" fill="#FFCC00"/>
<path d="M11.9306 5.79822L12.1084 6.39081L11.8121 6.45007L11.9306 5.79822Z" fill="#FFCC00"/>
<path d="M11.9306 5.79822L11.7528 6.39081L12.0491 6.45007L11.9306 5.79822Z" fill="#FFCC00"/>
<path d="M11.3688 6.20348L11.986 6.22813L11.9462 6.52185L11.3688 6.20348Z" fill="#FFCC00"/>
<path d="M11.3697 6.20489L11.872 6.55926L12.0238 6.30344L11.3697 6.20489Z" fill="#FFCC00"/>
<path d="M11.5821 6.87009L11.7871 6.28628L12.0613 6.41286L11.5821 6.87009Z" fill="#FFCC00"/>
<path d="M11.5822 6.87004L12.0745 6.49562L11.87 6.27321L11.5822 6.87004Z" fill="#FFCC00"/>
<path d="M12.4925 6.20348L11.8753 6.22813L11.9152 6.52185L12.4925 6.20348Z" fill="#FFCC00"/>
<path d="M12.4916 6.20489L11.9893 6.55926L11.8376 6.30344L12.4916 6.20489Z" fill="#FFCC00"/>
<path d="M12.2792 6.87009L12.0742 6.28628L11.8 6.41286L12.2792 6.87009Z" fill="#FFCC00"/>
<path d="M12.2791 6.87004L11.7868 6.49562L11.9913 6.27321L12.2791 6.87004Z" fill="#FFCC00"/>
<path d="M10.4578 3.81766L9.96558 3.4433L10.1701 3.22086L10.4578 3.81766Z" fill="#FFCC00"/>
<path d="M10.4578 3.81773L10.2528 3.23394L9.97858 3.36056L10.4578 3.81773Z" fill="#FFCC00"/>
<path d="M10.6734 3.15589L10.1634 3.50767L10.0163 3.2427L10.6734 3.15589Z" fill="#FFCC00"/>
<path d="M10.6733 3.15618L10.0545 3.16816L10.0887 3.46951L10.6733 3.15618Z" fill="#FFCC00"/>
<path d="M10.1053 2.7485L10.2862 3.3345L10.0009 3.39773L10.1053 2.7485Z" fill="#FFCC00"/>
<path d="M10.1032 2.74762L9.9407 3.33886L10.2278 3.39335L10.1032 2.74762Z" fill="#FFCC00"/>
<path d="M9.76132 3.81867L10.2531 3.44173L10.0469 3.22085L9.76132 3.81867Z" fill="#FFCC00"/>
<path d="M9.76163 3.81841L9.96426 3.23408L10.2399 3.35884L9.76163 3.81841Z" fill="#FFCC00"/>
<path d="M9.54378 3.15675L10.0572 3.50786L10.2022 3.24056L9.54378 3.15675Z" fill="#FFCC00"/>
<path d="M9.54448 3.15745L10.164 3.1662L10.1322 3.46949L9.54448 3.15745Z" fill="#FFCC00"/>
<path d="M11.0789 5.13592L11.2839 4.55213L11.5582 4.67875L11.0789 5.13592Z" fill="#FFCC00"/>
<path d="M11.0789 5.13585L11.5712 4.76149L11.3667 4.53905L11.0789 5.13585Z" fill="#FFCC00"/>
<path d="M11.7753 5.13688L11.2835 4.75993L11.4898 4.53905L11.7753 5.13688Z" fill="#FFCC00"/>
<path d="M11.775 5.13662L11.5724 4.55229L11.2967 4.67705L11.775 5.13662Z" fill="#FFCC00"/>
<path d="M11.9928 4.47495L11.4795 4.82607L11.3344 4.55876L11.9928 4.47495Z" fill="#FFCC00"/>
<path d="M11.9921 4.47565L11.3727 4.48441L11.4044 4.7877L11.9921 4.47565Z" fill="#FFCC00"/>
<path d="M10.8633 4.47409L11.3734 4.82586L11.5205 4.56089L10.8633 4.47409Z" fill="#FFCC00"/>
<path d="M10.8635 4.47437L11.4823 4.48635L11.4481 4.7877L10.8635 4.47437Z" fill="#FFCC00"/>
<path d="M11.4315 4.0667L11.2506 4.65269L11.5359 4.71592L11.4315 4.0667Z" fill="#FFCC00"/>
<path d="M11.4335 4.06581L11.596 4.65705L11.3089 4.71154L11.4335 4.06581Z" fill="#FFCC00"/>
<path d="M10.8662 8.03251L11.4825 8.05941L11.4394 8.35177L10.8662 8.03251Z" fill="#FFCC00"/>
<path d="M10.8676 8.03421L11.3654 8.38904L11.5199 8.13485L10.8676 8.03421Z" fill="#FFCC00"/>
<path d="M11.0699 8.69425L11.2961 8.1149L11.5575 8.25724L11.0699 8.69425Z" fill="#FFCC00"/>
<path d="M11.0727 8.6913L11.5693 8.33867L11.3802 8.10314L11.0727 8.6913Z" fill="#FFCC00"/>
<path d="M11.7679 8.71095L11.2813 8.3089L11.5058 8.10314L11.7679 8.71095Z" fill="#FFCC00"/>
<path d="M11.7643 8.70736L11.587 8.11789L11.2961 8.22449L11.7643 8.70736Z" fill="#FFCC00"/>
<path d="M11.4526 7.64861L11.2548 8.18972L11.4802 8.28L11.4526 7.64861Z" fill="#FFCC00"/>
<path d="M11.4657 7.64179L11.5454 8.22384L11.3082 8.24589L11.4657 7.64179Z" fill="#FFCC00"/>
<path d="M12.0054 8.05852L11.3752 8.01996L11.3691 8.35176L12.0054 8.05852Z" fill="#FFCC00"/>
<path d="M12.013 8.05156L11.4473 8.39298L11.3338 8.09147L12.013 8.05156Z" fill="#FFCC00"/>
<path d="M9.58003 9.22528L10.1963 9.25217L10.1533 9.54454L9.58003 9.22528Z" fill="#FFCC00"/>
<path d="M9.58147 9.22698L10.0793 9.58181L10.2337 9.32762L9.58147 9.22698Z" fill="#FFCC00"/>
<path d="M9.78372 9.88701L10.01 9.30767L10.2714 9.45L9.78372 9.88701Z" fill="#FFCC00"/>
<path d="M9.78659 9.88404L10.2832 9.53142L10.0941 9.29589L9.78659 9.88404Z" fill="#FFCC00"/>
<path d="M10.4818 9.90371L9.99519 9.50166L10.2197 9.2959L10.4818 9.90371Z" fill="#FFCC00"/>
<path d="M10.4782 9.90012L10.3009 9.31065L10.01 9.41726L10.4782 9.90012Z" fill="#FFCC00"/>
<path d="M10.1665 8.84138L9.96864 9.38249L10.1941 9.47276L10.1665 8.84138Z" fill="#FFCC00"/>
<path d="M10.1796 8.83456L10.2593 9.41661L10.0221 9.43865L10.1796 8.83456Z" fill="#FFCC00"/>
<path d="M10.7193 9.25129L10.089 9.21273L10.083 9.54452L10.7193 9.25129Z" fill="#FFCC00"/>
<path d="M10.7269 9.24432L10.1612 9.58574L10.0476 9.28423L10.7269 9.24432Z" fill="#FFCC00"/>
</g>
<defs>
<clipPath id="clip0_1710_82">
<rect width="16" height="12" fill="white" transform="translate(0.375 0.333328)"/>
</clipPath>
</defs>
</svg>
